<?xml version="1.0" encoding="UTF-8"?>
<svg version="1.1" xmlns="http://www.w3.org/2000/svg" width="216" height="72">
<path d="M0 0 C4.38535958 4.43289735 6.10112351 8.06445636 6.3125 14.25 C6.23053729 19.23333281 4.9902779 22.99843278 2 27 C-2.38185722 31.097189 -6.28625027 32.79125002 -12.25 33.25 C-18.63672018 32.82421865 -23.12870999 31.37573606 -27.4375 26.5 C-31.89832033 20.95740035 -31.62130145 14.84319166 -31 8 C-29.2912816 2.28711619 -25.07377654 -1.22618139 -20 -4 C-13.04134204 -6.56371609 -5.51364954 -4.63647802 0 0 Z M-20 8 C-21.61350378 11.22700757 -21.58705984 14.51099662 -21 18 C-18.55871269 21.44652326 -17.17033126 22.78056289 -13 23.5625 C-9.34092496 22.87642343 -7.64832324 21.57265686 -5 19 C-3.57337781 16.14675563 -3.68966132 14.16545451 -4 11 C-6.08213913 7.25214957 -7.2947039 6.20517705 -11.4375 5 C-15.37108373 5 -16.95425175 5.58131756 -20 8 Z " fill="#FFFFFF" transform="translate(68,19)"/>
<path d="M0 0 C3.3 0 6.6 0 10 0 C10.04898438 1.54171875 10.09796875 3.0834375 10.1484375 4.671875 C10.22347674 6.69793456 10.29902408 8.72397535 10.375 10.75 C10.4059375 11.76578125 10.436875 12.7815625 10.46875 13.828125 C10.50742188 14.8078125 10.54609375 15.7875 10.5859375 16.796875 C10.6173584 17.69760742 10.6487793 18.59833984 10.68115234 19.52636719 C10.90938791 22.36744199 10.90938791 22.36744199 13 26 C15.97 26 18.94 26 22 26 C22.74515899 22.61363691 23.16770563 19.38056897 23.31640625 15.91796875 C23.35830078 14.98662109 23.40019531 14.05527344 23.44335938 13.09570312 C23.48267578 12.13599609 23.52199219 11.17628906 23.5625 10.1875 C23.60568359 9.20845703 23.64886719 8.22941406 23.69335938 7.22070312 C23.79902166 4.81395102 23.89997465 2.40699297 24 0 C27.3 0 30.6 0 34 0 C34 11.88 34 23.76 34 36 C30.7 36 27.4 36 24 36 C23.67 35.34 23.34 34.68 23 34 C22.34 34.66 21.68 35.32 21 36 C16.31859044 37.11983358 12.20584684 37.40194895 7.625 35.875 C4.005886 33.28991857 1.49319671 30.98879972 0.3984375 26.57421875 C-0.17610068 21.42027333 -0.10397355 16.30600357 -0.0625 11.125 C-0.05798828 10.05507813 -0.05347656 8.98515625 -0.04882812 7.8828125 C-0.03709764 5.25518411 -0.01916391 2.62758469 0 0 Z " fill="#FFFFFF" transform="translate(111,15)"/>
<path d="M0 0 C3.0625 2.125 3.0625 2.125 5.0625 5.125 C5.0625 6.115 5.0625 7.105 5.0625 8.125 C1.1025 10.105 1.1025 10.105 -2.9375 12.125 C-3.618125 11.444375 -4.29875 10.76375 -5 10.0625 C-7.85535482 7.79234901 -7.85535482 7.79234901 -11.5625 8.125 C-14.90568286 8.86133888 -14.90568286 8.86133888 -16.875 10.8125 C-18.2988395 13.9114448 -18.48903827 15.74682812 -17.9375 19.125 C-16.02083333 22.20833333 -16.02083333 22.20833333 -12.9375 24.125 C-8.29723266 24.125 -5.36104759 23.27466379 -1.9375 20.125 C0.7025 21.775 3.3425 23.425 6.0625 25.125 C3.10237161 30.05854732 0.61618721 32.82198136 -4.8125 34.8125 C-12.28079246 35.9107783 -17.3599874 34.40159893 -23.6875 30.375 C-27.89685435 26.16564565 -29.10809703 21.97929443 -29.375 16.1875 C-29.16184124 9.82180424 -27.04148093 5.28584528 -22.625 0.75 C-15.32960503 -3.66116905 -7.50732684 -4.05801451 0 0 Z " fill="#FFFFFF" transform="translate(103.9375,16.875)"/>
<path d="M0 0 C2.5625 2.1875 2.5625 2.1875 3.4375 4.4375 C3.47875 5.015 3.52 5.5925 3.5625 6.1875 C-3.1875 10.1875 -3.1875 10.1875 -5.4375 10.1875 C-6.118125 9.4140625 -6.118125 9.4140625 -6.8125 8.625 C-7.34875 8.150625 -7.885 7.67625 -8.4375 7.1875 C-10.60049211 7.41507731 -10.60049211 7.41507731 -12.4375 8.1875 C-11.59501947 10.42964658 -11.59501947 10.42964658 -9.07421875 11.1171875 C-7.1166699 11.74464024 -5.15834037 12.36966287 -3.19921875 12.9921875 C0.46153943 14.57661749 2.77344648 16.60939296 4.5625 20.1875 C5.07921306 24.66567989 4.90211854 26.65809464 2.4375 30.5 C-1.53914219 34.21729596 -4.47135129 35.00544919 -9.8125 35.5 C-15.04609047 35.04882841 -19.64994127 33.97505873 -23.4375 30.1875 C-24.4375 28.1875 -24.4375 28.1875 -24.4375 25.1875 C-21.7975 23.8675 -19.1575 22.5475 -16.4375 21.1875 C-15.715625 21.868125 -14.99375 22.54875 -14.25 23.25 C-11.6169348 25.50487069 -11.6169348 25.50487069 -8.625 24.9375 C-7.903125 24.69 -7.18125 24.4425 -6.4375 24.1875 C-8.72018198 21.55475816 -10.53592574 20.65656148 -13.875 19.75 C-17.67043208 18.57742749 -19.94469098 17.40737832 -22.4375 14.1875 C-24.01205739 11.03838521 -23.78549118 8.66741184 -23.4375 5.1875 C-21.03811214 1.33393768 -19.29717693 -0.43943265 -15.125 -2.25 C-9.2729591 -3.14268421 -5.26703429 -2.77716353 0 0 Z " fill="#FFFFFF" transform="translate(172.4375,16.8125)"/>
<path d="M0 0 C0 2.97 0 5.94 0 9 C-0.969375 9.28875 -1.93875 9.5775 -2.9375 9.875 C-6.10664203 10.64214682 -6.10664203 10.64214682 -7 13 C-4.69 13.33 -2.38 13.66 0 14 C0 17.3 0 20.6 0 24 C-2.64 24 -5.28 24 -8 24 C-8 32.58 -8 41.16 -8 50 C-11.3 50 -14.6 50 -18 50 C-18 41.42 -18 32.84 -18 24 C-19.32 24 -20.64 24 -22 24 C-22 20.7 -22 17.4 -22 14 C-20.35 14 -18.7 14 -17 14 C-16.98582031 13.39671875 -16.97164062 12.7934375 -16.95703125 12.171875 C-16.56352423 5.57797357 -16.56352423 5.57797357 -13.5625 2.5 C-8.69003072 -0.35217714 -5.6496518 -0.08070931 0 0 Z " fill="#FFFFFF" transform="translate(22,1)"/>
<path d="M0 0 C3.3 0 6.6 0 10 0 C10 16.83 10 33.66 10 51 C6.7 51 3.4 51 0 51 C0 34.17 0 17.34 0 0 Z " fill="#FFFFFF" transform="translate(24,0)"/>
<path d="M0 0 C1.21880859 -0.01224609 2.43761719 -0.02449219 3.69335938 -0.03710938 C5.43649414 -0.04000977 5.43649414 -0.04000977 7.21484375 -0.04296875 C8.28726318 -0.04707764 9.35968262 -0.05118652 10.46459961 -0.05541992 C13.0625 0.1875 13.0625 0.1875 15.0625 2.1875 C15.3984375 4.68359375 15.3984375 4.68359375 15.4375 7.625 C15.46585938 8.59308594 15.49421875 9.56117187 15.5234375 10.55859375 C15.0625 13.1875 15.0625 13.1875 13.35229492 14.82910156 C10.65343708 16.43017258 9.08318325 16.56132485 5.96484375 16.55078125 C4.99869141 16.55013672 4.03253906 16.54949219 3.03710938 16.54882812 C2.03486328 16.53271484 1.03261719 16.51660156 0 16.5 C-1.50916992 16.50483398 -1.50916992 16.50483398 -3.04882812 16.50976562 C-10.53663247 16.45474502 -10.53663247 16.45474502 -13.9375 14.1875 C-14.265625 11.18359375 -14.265625 11.18359375 -14.1875 7.625 C-14.16429687 5.85962891 -14.16429687 5.85962891 -14.140625 4.05859375 C-13.67526941 -2.51902853 -5.18910488 0.00273543 0 0 Z M-8.9375 4.1875 C-8.9375 6.4975 -8.9375 8.8075 -8.9375 11.1875 C-8.6075 11.1875 -8.2775 11.1875 -7.9375 11.1875 C-7.6075 8.8775 -7.2775 6.5675 -6.9375 4.1875 C-7.5975 4.1875 -8.2575 4.1875 -8.9375 4.1875 Z M-2.9375 4.1875 C-2.9375 6.4975 -2.9375 8.8075 -2.9375 11.1875 C-2.6075 11.1875 -2.2775 11.1875 -1.9375 11.1875 C-1.9375 9.2075 -1.9375 7.2275 -1.9375 5.1875 C-1.2775 4.8575 -0.6175 4.5275 0.0625 4.1875 C-0.9275 4.1875 -1.9175 4.1875 -2.9375 4.1875 Z M0.0625 5.1875 C1.0625 7.1875 1.0625 7.1875 1.0625 7.1875 Z M3.0625 5.1875 C3.0625 6.8375 3.0625 8.4875 3.0625 10.1875 C3.3925 10.1875 3.7225 10.1875 4.0625 10.1875 C4.0625 8.5375 4.0625 6.8875 4.0625 5.1875 C3.7325 5.1875 3.4025 5.1875 3.0625 5.1875 Z M8.0625 5.1875 C8.0625 6.8375 8.0625 8.4875 8.0625 10.1875 C8.3925 10.1875 8.7225 10.1875 9.0625 10.1875 C9.0625 8.5375 9.0625 6.8875 9.0625 5.1875 C8.7325 5.1875 8.4025 5.1875 8.0625 5.1875 Z M4.0625 10.1875 C8.0625 11.1875 8.0625 11.1875 8.0625 11.1875 Z " fill="#FFFFFF" transform="translate(200.9375,15.8125)"/>
<path d="M0 0 C0.66 0 1.32 0 2 0 C2 0.66 2 1.32 2 2 C5.63 2 9.26 2 13 2 C12.01 4.64 11.02 7.28 10 10 C9.01 10 8.02 10 7 10 C7 8.68 7 7.36 7 6 C6.67 6.66 6.34 7.32 6 8 C4.02 8 2.04 8 0 8 C0 5.36 0 2.72 0 0 Z M2 4 C2 4.66 2 5.32 2 6 C2.66 6 3.32 6 4 6 C4 5.34 4 4.68 4 4 C3.34 4 2.68 4 2 4 Z " fill="#FFFFFF" transform="translate(88,62)"/>
<path d="" fill="#FFFFFF" transform="translate(0,0)"/>
<path d="" fill="#FFFFFF" transform="translate(0,0)"/>
</svg>
